<?xml version="1.0" standalone="no"?>
<!DOCTYPE svg PUBLIC "-//W3C//DTD SVG 20010904//EN"
 "http://www.w3.org/TR/2001/REC-SVG-20010904/DTD/svg10.dtd">
<svg version="1.0" xmlns="http://www.w3.org/2000/svg"
 width="1280.000000pt" height="1280.000000pt" viewBox="0 0 1280.000000 1280.000000"
 preserveAspectRatio="xMidYMid meet">
<g transform="translate(0.000000,1280.000000) scale(0.100000,-0.100000)"
fill="#3f7eb8" stroke="none">
<path d="M8015 12294 c-16 -2 -70 -9 -120 -15 -447 -55 -1004 -322 -1509 -721
-54 -43 -105 -78 -113 -78 -8 0 -71 38 -141 84 -448 297 -865 462 -1274 507
-135 15 -375 5 -498 -20 -474 -96 -853 -402 -1118 -901 -144 -270 -259 -633
-317 -996 -15 -93 -31 -178 -35 -190 -7 -18 -22 -22 -112 -33 -1085 -130
-1819 -581 -2043 -1254 -60 -182 -70 -248 -70 -482 0 -178 4 -227 23 -324 89
-441 321 -906 680 -1360 45 -57 82 -109 82 -115 0 -5 -45 -100 -100 -211 -145
-293 -208 -482 -246 -736 -22 -155 -16 -425 14 -554 72 -310 215 -551 463
-782 294 -272 751 -484 1293 -598 67 -14 126 -31 132 -38 6 -7 19 -66 28 -132
123 -891 491 -1568 1018 -1876 582 -340 1348 -248 2144 257 56 35 104 64 108
64 4 0 65 -42 136 -94 495 -361 981 -574 1434 -627 140 -16 404 -6 528 20 726
156 1236 824 1413 1851 14 85 30 171 34 190 l7 34 124 28 c929 207 1509 666
1658 1313 115 498 -23 1057 -415 1678 l-75 117 120 133 c151 166 208 235 309
368 333 438 533 861 603 1274 27 155 29 388 5 530 -64 386 -276 716 -627 976
-344 255 -860 444 -1448 529 -79 12 -146 23 -148 25 -3 2 -19 89 -37 192 -69
395 -162 697 -302 977 -117 234 -238 401 -410 567 -223 215 -490 353 -783 403
-91 16 -353 29 -415 20z m280 -259 c556 -84 1003 -470 1261 -1092 108 -260
239 -752 208 -783 -12 -12 -404 9 -421 23 -7 5 -13 17 -13 27 0 37 -63 140
-111 184 -72 65 -142 89 -249 84 -101 -4 -173 -33 -244 -98 -45 -42 -116 -164
-116 -201 0 -28 -25 -35 -165 -48 -157 -15 -459 -55 -613 -81 -62 -10 -118
-17 -125 -14 -7 3 -52 58 -102 121 -310 398 -680 783 -1042 1085 -79 66 -143
123 -143 128 0 20 311 233 485 332 308 175 636 293 925 333 131 18 345 18 465
0z m-3325 -209 c266 -36 547 -129 826 -275 160 -84 314 -178 321 -197 5 -13
-83 -102 -224 -228 l-43 -38 -41 16 c-72 29 -148 31 -230 6 -63 -19 -81 -30
-134 -83 -80 -80 -108 -148 -108 -262 0 -59 6 -95 22 -138 l23 -58 -24 -29
c-125 -156 -292 -375 -391 -514 l-120 -169 -56 6 c-31 3 -137 17 -236 31 -418
58 -738 79 -1165 74 l-325 -3 3 45 c4 60 66 329 107 460 129 415 310 728 557
965 234 225 509 355 843 398 74 10 299 5 395 -7z m1407 -647 c356 -267 755
-660 1091 -1072 40 -49 72 -92 72 -97 0 -11 -11 -14 -160 -45 -341 -71 -749
-180 -1141 -305 -134 -43 -233 -70 -248 -67 -14 3 -159 39 -321 80 -162 41
-378 93 -480 114 -141 29 -185 42 -188 54 -4 23 400 557 460 607 10 8 28 3 75
-20 149 -73 331 -31 428 99 82 111 96 262 36 390 -17 36 -28 70 -24 76 20 33
274 256 292 257 8 0 57 -32 108 -71z m3288 -1180 c81 -7 124 -15 131 -25 15
-19 32 -195 45 -472 16 -346 -6 -778 -61 -1202 -29 -217 -78 -502 -90 -514 -6
-6 -21 -1 -42 14 -237 176 -551 388 -801 540 -133 81 -140 87 -171 145 -18 33
-78 143 -133 245 -183 338 -464 788 -666 1067 -67 93 -74 107 -59 117 25 15
627 86 731 86 l57 0 23 -54 c49 -119 161 -200 292 -212 156 -15 311 79 383
232 l27 56 107 -6 c59 -4 161 -12 227 -17z m467 -65 c991 -191 1598 -631 1772
-1282 75 -280 57 -606 -53 -939 -97 -297 -280 -626 -521 -938 -101 -130 -269
-325 -280 -325 -5 0 -46 46 -91 103 -116 144 -264 311 -403 454 l-118 123 22
52 c18 42 21 65 18 132 -5 126 -58 208 -170 268 -36 19 -58 23 -143 23 -84 0
-107 -4 -144 -22 -25 -13 -50 -23 -56 -23 -13 0 -136 96 -147 114 -3 6 0 43 8
81 130 621 195 1393 165 1957 -11 203 -10 248 5 248 2 0 64 -12 136 -26z
m-2382 -191 c134 -181 361 -524 492 -743 110 -184 238 -411 238 -423 0 -17
-36 -3 -132 49 -164 91 -617 312 -819 401 -359 159 -769 317 -1121 433 -96 31
-158 57 -158 64 0 14 91 45 372 126 321 91 909 227 995 229 29 1 39 -9 133
-136z m-3775 57 c208 -12 353 -25 555 -51 191 -24 210 -27 210 -43 0 -7 -28
-57 -63 -112 -105 -165 -251 -412 -358 -608 -56 -102 -106 -190 -113 -195 -6
-5 -74 -45 -151 -89 -288 -163 -644 -390 -903 -574 -55 -40 -75 -49 -81 -39
-10 16 -41 264 -48 391 l-6 96 59 17 c162 46 268 219 234 383 -28 138 -125
246 -259 290 l-51 16 0 97 c1 141 26 381 42 397 29 28 604 43 933 24z m-1114
-149 c-2 -58 -6 -165 -10 -240 l-6 -134 -55 -28 c-64 -33 -128 -99 -161 -166
-19 -39 -23 -64 -23 -138 -1 -76 3 -98 25 -145 38 -81 99 -144 175 -181 36
-18 66 -35 69 -38 2 -4 11 -74 20 -156 9 -83 25 -211 36 -285 11 -74 17 -144
14 -155 -3 -11 -70 -70 -148 -132 -449 -354 -866 -780 -1149 -1175 -46 -65
-87 -113 -97 -113 -21 0 -157 191 -270 380 -348 582 -457 1133 -314 1590 187
596 745 1004 1617 1180 193 38 221 43 256 41 l25 -1 -4 -104z m2329 -11 c316
-64 552 -122 558 -138 2 -6 -5 -15 -15 -18 -227 -79 -800 -328 -1101 -478
-107 -53 -198 -93 -203 -90 -15 9 136 275 324 569 122 192 133 205 165 205 15
0 137 -22 272 -50z m1075 -277 c770 -239 1522 -571 2307 -1018 45 -25 51 -34
119 -173 151 -312 275 -598 404 -932 78 -204 255 -728 255 -757 0 -22 -85
-264 -175 -498 -132 -344 -335 -795 -509 -1130 l-93 -180 -79 -42 c-312 -167
-1044 -459 -1536 -613 -386 -121 -1001 -280 -1085 -280 -80 0 -781 277 -1203
475 -332 156 -304 137 -362 240 -197 349 -434 854 -616 1310 -117 294 -252
684 -252 728 0 104 266 887 457 1347 127 305 372 819 411 863 22 25 566 295
807 401 219 97 562 234 750 301 138 49 89 54 400 -42z m-2171 -791 c3 -5 -31
-85 -76 -178 -193 -406 -380 -874 -539 -1354 -61 -185 -102 -295 -110 -295
-15 0 -22 22 -89 280 -88 337 -196 868 -184 898 7 18 220 172 439 319 186 124
532 338 546 338 4 0 10 -4 13 -8z m5016 -567 c135 -90 313 -215 395 -278 l150
-113 -3 -39 c-4 -47 -137 -578 -184 -730 -21 -69 -38 -110 -47 -110 -8 0 -38
71 -81 195 -126 363 -252 680 -411 1030 -49 107 -89 198 -89 202 0 21 43 -4
270 -157z m-6126 -207 c3 -13 17 -84 31 -158 57 -290 160 -700 256 -1017 l40
-132 -56 -223 c-69 -273 -145 -651 -181 -898 -15 -102 -31 -189 -36 -194 -5
-6 -33 8 -70 34 -90 62 -400 304 -417 324 -13 15 -11 24 14 74 22 45 29 74 33
142 6 118 -19 183 -102 266 -119 119 -294 146 -448 68 -26 -13 -54 -24 -62
-24 -25 0 -316 324 -316 353 0 21 169 272 271 403 162 207 314 372 564 612
157 151 441 392 461 392 8 0 16 -10 18 -22z m6846 -326 l34 -29 -18 -58 c-24
-74 -17 -157 19 -230 31 -64 79 -109 155 -144 70 -33 179 -36 253 -7 l49 18
40 -38 c125 -122 405 -450 509 -598 39 -55 46 -72 39 -87 -15 -26 -301 -292
-450 -416 -252 -211 -663 -515 -689 -511 -10 2 -26 56 -52 183 -52 253 -92
421 -151 635 -28 102 -57 210 -65 240 l-15 55 65 210 c69 222 123 416 183 658
21 84 41 147 48 147 7 0 27 -13 46 -28z m-6366 -1427 c162 -443 331 -836 547
-1268 77 -152 139 -279 139 -282 0 -17 -49 5 -179 76 -369 206 -811 489 -811
520 0 83 95 651 151 904 51 233 58 257 70 253 6 -2 43 -93 83 -203z m-1736 54
c75 -78 141 -148 146 -156 5 -9 1 -36 -9 -70 -25 -79 -17 -201 17 -268 57
-112 177 -191 304 -202 68 -5 132 6 210 38 30 12 33 10 174 -100 79 -62 211
-160 293 -219 82 -58 151 -112 154 -119 3 -7 -3 -100 -13 -205 -16 -157 -19
-281 -19 -661 0 -257 -4 -467 -8 -467 -46 0 -378 101 -529 161 -473 188 -838
497 -1007 852 -90 190 -131 378 -131 602 0 268 57 514 190 815 46 106 66 140
80 140 6 0 72 -63 148 -141z m7757 -99 c61 -247 145 -651 145 -700 0 -27 -8
-36 -86 -86 -190 -122 -681 -405 -746 -430 -32 -11 -20 22 72 206 162 324 338
729 467 1074 58 157 71 182 84 169 4 -4 33 -109 64 -233z m1582 93 c169 -275
302 -608 355 -891 32 -168 31 -433 -1 -582 -31 -143 -63 -236 -128 -361 -216
-418 -664 -730 -1295 -899 -80 -21 -109 -25 -116 -17 -6 7 -6 50 -2 107 5 52
12 200 16 328 l7 233 62 28 c112 51 183 149 193 267 12 153 -87 302 -233 350
-27 9 -55 21 -61 25 -6 5 -14 42 -18 82 -3 39 -18 150 -32 246 -13 96 -23 180
-20 186 2 7 75 61 163 121 337 232 671 497 933 737 63 59 120 106 125 107 6 0
29 -30 52 -67z m-1402 -1005 c10 -44 45 -339 45 -381 0 -41 -2 -44 -45 -65
-96 -46 -154 -124 -176 -236 -29 -142 68 -309 214 -370 20 -8 40 -22 43 -30 8
-20 -14 -448 -30 -584 -7 -62 -18 -118 -24 -124 -5 -5 -65 -18 -133 -29 -330
-50 -752 -69 -1123 -50 -275 15 -584 45 -598 59 -7 7 19 51 84 139 203 273
437 635 625 965 l96 168 237 124 c242 127 487 265 665 375 54 33 103 61 107
61 4 0 10 -10 13 -22z m-6308 -297 c230 -145 465 -280 724 -418 l197 -104 111
-187 c61 -103 155 -257 210 -342 55 -85 96 -159 92 -163 -4 -4 -34 -9 -67 -10
l-58 -2 -20 53 c-26 72 -101 153 -167 182 -81 34 -183 31 -265 -10 -74 -36
-135 -101 -160 -168 -23 -64 -36 -72 -103 -67 -31 3 -123 10 -206 16 -217 16
-477 55 -491 74 -29 40 -51 598 -35 915 15 293 20 350 37 350 7 0 97 -53 201
-119z m5073 -359 c0 -13 -185 -316 -297 -487 -124 -188 -241 -353 -370 -522
-79 -104 -98 -123 -121 -123 -41 0 -408 65 -590 105 -217 47 -447 105 -682
171 -186 53 -221 66 -208 79 3 3 92 28 197 55 630 162 1330 406 1864 649 165
76 207 90 207 73z m-3732 -361 c277 -126 746 -317 870 -355 18 -6 33 -36 17
-36 -2 0 -73 -11 -157 -25 -204 -33 -557 -75 -575 -68 -24 9 -363 534 -363
561 0 7 3 12 6 12 3 0 94 -40 202 -89z m1399 -535 c468 -145 895 -249 1361
-332 50 -9 95 -20 98 -25 6 -10 -33 -61 -116 -152 l-50 -55 -58 20 c-152 54
-316 -15 -393 -164 -32 -61 -38 -180 -13 -260 l18 -61 -59 -54 c-187 -168
-552 -453 -582 -453 -31 0 -432 357 -609 543 -124 129 -311 339 -416 468 -128
156 -318 410 -318 425 0 8 17 15 43 18 337 46 806 123 852 140 21 9 41 4 242
-58z m-2727 -101 c74 -8 230 -20 345 -26 232 -12 212 -5 265 -91 76 -124 243
-170 388 -108 57 25 147 112 164 160 5 17 18 34 27 39 9 5 68 12 131 16 l115
7 81 -114 c342 -477 767 -956 1159 -1304 55 -49 101 -94 103 -101 4 -17 -63
-59 -228 -143 -388 -197 -768 -293 -1096 -277 -615 31 -1098 392 -1393 1042
-72 161 -162 435 -205 630 -56 255 -58 301 -14 290 13 -3 84 -12 158 -20z
m4610 -305 c331 -37 480 -45 875 -44 292 0 428 4 540 17 83 9 179 19 214 23
l64 7 -6 -48 c-31 -221 -141 -577 -252 -812 -250 -527 -628 -850 -1125 -959
-69 -15 -126 -19 -305 -19 -201 1 -231 3 -350 28 -308 66 -643 207 -947 400
-177 112 -239 158 -231 171 5 8 53 48 108 91 128 99 233 189 365 309 115 106
104 102 205 66 78 -29 162 -23 239 14 155 76 224 272 151 434 -15 34 -25 67
-22 74 3 7 56 73 117 147 l112 133 42 -6 c22 -4 115 -16 206 -26z"/>
</g>
</svg>
